<svg version="1.1" viewBox="0.0 0.0 541.7769028871392 548.2362204724409" fill="none" stroke="none" stroke-linecap="square" stroke-miterlimit="10" xmlns:xlink="http://www.w3.org/1999/xlink" xmlns="http://www.w3.org/2000/svg"><clipPath id="p.0"><path d="m0 0l541.7769 0l0 548.2362l-541.7769 0l0 -548.2362z" clip-rule="nonzero"/></clipPath><g clip-path="url(#p.0)"><path fill="#000000" fill-opacity="0.0" d="m0 0l541.7769 0l0 548.2362l-541.7769 0z" fill-rule="evenodd"/><path fill="#f3f3f3" d="m0.040682416 108.73438l85.775856 -108.73438l343.10342 0l0 543.67194l-428.87927 0z" fill-rule="evenodd"/><path stroke="#000000" stroke-width="2.0" stroke-linejoin="round" stroke-linecap="butt" d="m0.040682416 108.73438l85.775856 -108.73438l343.10342 0l0 543.67194l-428.87927 0z" fill-rule="evenodd"/><path fill="#bf9000" d="m280.0312 333.8542l-74.97638 31.700775l34.37796 -73.811035z" fill-rule="evenodd"/><path stroke="#000000" stroke-width="1.0" stroke-linejoin="round" stroke-linecap="butt" d="m280.0312 333.8542l-74.97638 31.700775l34.37796 -73.811035z" fill-rule="evenodd"/><path fill="#ffd966" d="m460.47104 78.55553l0 0c-2.906311 2.803543 3.8258972 14.50296 15.036835 26.131386c11.210968 11.628418 22.655273 18.782394 25.561584 15.978851l-221.0343 213.21753c-2.9063416 2.8035583 -14.350647 -4.3504333 -25.561584 -15.978851c-11.210953 -11.628418 -17.943176 -23.32785 -15.03685 -26.131378z" fill-rule="evenodd"/><path fill="#ffe8a3" d="m460.47104 78.55553l0 0c2.9063416 -2.8035507 14.350647 4.3504257 25.561584 15.978851c11.2109375 11.628418 17.943176 23.327835 15.036835 26.131386l0 0c-2.906311 2.803543 -14.350616 -4.3504333 -25.561584 -15.978851c-11.2109375 -11.628426 -17.943146 -23.327843 -15.036835 -26.131386z" fill-rule="evenodd"/><path fill="#000000" fill-opacity="0.0" d="m501.06946 120.665764l0 0c-2.906311 2.803543 -14.350616 -4.3504333 -25.561584 -15.978851c-11.2109375 -11.628426 -17.943146 -23.327843 -15.036835 -26.131386l0 0c2.9063416 -2.8035507 14.350647 4.3504257 25.561584 15.978851c11.2109375 11.628418 17.943176 23.327835 15.036835 26.131386l-221.0343 213.21753c-2.9063416 2.8035583 -14.350647 -4.3504333 -25.561584 -15.978851c-11.210953 -11.628418 -17.943176 -23.32785 -15.03685 -26.131378l221.03432 -213.21754" fill-rule="evenodd"/><path stroke="#000000" stroke-width="1.0" stroke-linejoin="round" stroke-linecap="butt" d="m501.06946 120.665764l0 0c-2.906311 2.803543 -14.350616 -4.3504333 -25.561584 -15.978851c-11.2109375 -11.628426 -17.943146 -23.327843 -15.036835 -26.131386l0 0c2.9063416 -2.8035507 14.350647 4.3504257 25.561584 15.978851c11.2109375 11.628418 17.943176 23.327835 15.036835 26.131386l-221.0343 213.21753c-2.9063416 2.8035583 -14.350647 -4.3504333 -25.561584 -15.978851c-11.210953 -11.628418 -17.943176 -23.32785 -15.03685 -26.131378l221.03432 -213.21754" fill-rule="evenodd"/><path fill="#c27ba0" d="m497.58984 42.74988l0 0c-2.905365 2.8022842 3.8276367 14.493633 15.038574 26.113354c11.2109375 11.619728 22.65448 18.76767 25.559814 15.965385l-37.41571 36.08825c-2.905365 2.8022842 -14.348907 -4.345665 -25.559845 -15.965385c-11.2109375 -11.61972 -17.94394 -23.311073 -15.038574 -26.113358z" fill-rule="evenodd"/><path fill="#daafc6" d="m497.58984 42.74988l0 0c2.905365 -2.8022842 14.348877 4.345661 25.559814 15.965382c11.2109375 11.619728 17.94397 23.311073 15.038574 26.113358l0 0c-2.9053345 2.8022842 -14.348877 -4.3456573 -25.559814 -15.965385c-11.2109375 -11.61972 -17.94394 -23.31107 -15.038574 -26.113354z" fill-rule="evenodd"/><path fill="#000000" fill-opacity="0.0" d="m538.18823 84.82862l0 0c-2.9053345 2.8022842 -14.348877 -4.3456573 -25.559814 -15.965385c-11.2109375 -11.61972 -17.94394 -23.31107 -15.038574 -26.113354l0 0c2.905365 -2.8022842 14.348877 4.345661 25.559814 15.965382c11.2109375 11.619728 17.94397 23.311073 15.038574 26.113358l-37.41571 36.08825c-2.905365 2.8022842 -14.348907 -4.345665 -25.559845 -15.965385c-11.2109375 -11.61972 -17.94394 -23.311073 -15.038574 -26.113358l37.41574 -36.088245" fill-rule="evenodd"/><path stroke="#000000" stroke-width="1.0" stroke-linejoin="round" stroke-linecap="butt" d="m538.18823 84.82862l0 0c-2.9053345 2.8022842 -14.348877 -4.3456573 -25.559814 -15.965385c-11.2109375 -11.61972 -17.94394 -23.31107 -15.038574 -26.113354l0 0c2.905365 -2.8022842 14.348877 4.345661 25.559814 15.965382c11.2109375 11.619728 17.94397 23.311073 15.038574 26.113358l-37.41571 36.08825c-2.905365 2.8022842 -14.348907 -4.345665 -25.559845 -15.965385c-11.2109375 -11.61972 -17.94394 -23.311073 -15.038574 -26.113358l37.41574 -36.088245" fill-rule="evenodd"/><path fill="#000000" d="m227.39064 355.644l-22.330704 9.921265l10.740158 -21.952759z" fill-rule="evenodd"/><path stroke="#000000" stroke-width="1.0" stroke-linejoin="round" stroke-linecap="butt" d="m227.39064 355.644l-22.330704 9.921265l10.740158 -21.952759z" fill-rule="evenodd"/><path fill="#000000" fill-opacity="0.0" d="m205.54395 363.31357l0 0c-49.553726 -25.463959 -84.97183 -69.92807 -90.303635 -113.36772c-5.3318024 -43.43965 20.428497 -77.660355 65.67966 -87.25067l65.06535 109.14195z" fill-rule="evenodd"/><path fill="#000000" fill-opacity="0.0" d="m205.54395 363.31357l0 0c-49.553726 -25.463959 -84.97183 -69.92807 -90.303635 -113.36772c-5.3318024 -43.43965 20.428497 -77.660355 65.67966 -87.25067" fill-rule="evenodd"/><path stroke="#000000" stroke-width="1.0" stroke-linejoin="round" stroke-linecap="butt" d="m205.54395 363.31357l0 0c-49.553726 -25.463959 -84.97183 -69.92807 -90.303635 -113.36772c-5.3318024 -43.43965 20.428497 -77.660355 65.67966 -87.25067" fill-rule="evenodd"/></g></svg>