<svg version="1.1" viewBox="0.0 0.0 961.8083989501313 720.0183727034121" fill="none" stroke="none" stroke-linecap="square" stroke-miterlimit="10" xmlns:xlink="http://www.w3.org/1999/xlink" xmlns="http://www.w3.org/2000/svg"><clipPath id="p.0"><path d="m0 0l961.8084 0l0 720.0184l-961.8084 0l0 -720.0184z" clip-rule="nonzero"/></clipPath><g clip-path="url(#p.0)"><path fill="#000000" fill-opacity="0.0" d="m0 0l961.8084 0l0 720.0184l-961.8084 0z" fill-rule="evenodd"/><path fill="#9fc5e8" d="m0 191.5532l0 0c0 -58.407104 47.348305 -105.7554 105.755394 -105.7554l748.48926 0c28.048035 0 54.947327 11.142052 74.780334 30.975037c19.833008 19.832977 30.975037 46.732285 30.975037 74.780365l0 423.00885c0 58.407104 -47.348328 105.75543 -105.75537 105.75543l-748.48926 0c-58.40709 0 -105.755394 -47.348328 -105.755394 -105.75543z" fill-rule="evenodd"/><path fill="#9fc5e8" d="m0 40.676918l0 0c0 -22.465826 18.21215 -40.67798 40.67798 -40.67798l348.6283 0c10.788483 0 21.13507 4.285703 28.763672 11.914304c7.628601 7.6286 11.914307 17.975204 11.914307 28.763672l0 162.70703c0 22.46582 -18.212158 40.67798 -40.67798 40.67798l-348.6283 0c-22.465828 0 -40.67798 -18.212158 -40.67798 -40.67798z" fill-rule="evenodd"/></g></svg>