<svg version="1.1" viewBox="0.0 0.0 875.2047244094488 301.2257217847769" fill="none" stroke="none" stroke-linecap="square" stroke-miterlimit="10" xmlns:xlink="http://www.w3.org/1999/xlink" xmlns="http://www.w3.org/2000/svg"><clipPath id="p.0"><path d="m0 0l875.2047 0l0 301.2257l-875.2047 0l0 -301.2257z" clip-rule="nonzero"/></clipPath><g clip-path="url(#p.0)">
<path fill="#000000" fill-opacity="0.0" d="m0 0l875.2047 0l0 301.2257l-875.2047 0z" fill-rule="evenodd"/>
<path fill="#adadad" d="m43.009186 150.61285l0 0c0 -59.34234 48.106476 -107.44881 107.44882 -107.44881l0 0c28.497192 0 55.827225 11.320465 75.97778 31.471027c20.150558 20.150566 31.471039 47.48059 31.471039 75.97778l0 0c0 59.342346 -48.106476 107.44882 -107.44882 107.44882l0 0c-59.342346 0 -107.44882 -48.106476 -107.44882 -107.44882z" fill-rule="evenodd"/>
<path fill="#adadad" d="m330.15353 150.61285l0 0c0 -59.34234 48.106476 -107.44881 107.44882 -107.44881l0 0c28.497192 0 55.82724 11.320465 75.97778 31.471027c20.150574 20.150566 31.47107 47.48059 31.47107 75.97778l0 0c0 59.342346 -48.106506 107.44882 -107.44885 107.44882l0 0c-59.342346 0 -107.44882 -48.106476 -107.44882 -107.44882z" fill-rule="evenodd"/>
<path fill="#adadad" d="m617.2979 150.61285l0 0c0 -59.34234 48.106445 -107.44881 107.44879 -107.44881l0 0c28.497192 0 55.82727 11.320465 75.97778 31.471027c20.150574 20.150566 31.47107 47.48059 31.47107 75.97778l0 0c0 59.342346 -48.106506 107.44882 -107.44885 107.44882l0 0c-59.342346 0 -107.44879 -48.106476 -107.44879 -107.44882z" fill-rule="evenodd"/></g></svg>